# xmcd CD database file
#
# Track frame offsets:
#	150
#	19075
#	33050
#	46675
#	57925
#	70975
#	82675
#	97162
#	114012
#	126275
#
# Disc length: 1844 seconds
#
# Revision: 0
# Processed by: cddbd v1.5.1PL0 Copyright (c) Steve Scherf et al.
# Submitted via: CDex 1.50beta10
#
DISCID=7107320a
DTITLE=Various Artist - Country Gospel Memories
DYEAR=1996
DGENRE=Country
TTITLE0=Barbara Mandrell - I Will Glory In The Cross
TTITLE1=Webb Pierce - The Old Country Church
TTITLE2=Willie Nelson - Kneel At The Feet Of Jesus
TTITLE3=Chuck Wagon Gang - Amazing Grace
TTITLE4=Patsy Cline - If I Could See The World (Through The Eyes Of A Child)
TTITLE5=Merle Haggard - What A Friend We Have In Jesus
TTITLE6=Osborne Brothers - How Great Thou Art
TTITLE7=Roy Clark - Why Me Lord?
TTITLE8=Conway Twitty - Clinging To A Saving Hand
TTITLE9=Red Foley and The Jordanaires - Lord, I'm Coming Home
EXTD=YEAR: 1996
EXTT0=
EXTT1=
EXTT2=
EXTT3=
EXTT4=
EXTT5=
EXTT6=
EXTT7=
EXTT8=
EXTT9=
PLAYORDER=
